<svg t="1721557818761" class="icon" viewBox="0 0 1024 1024" version="1.1" xmlns="http://www.w3.org/2000/svg" p-id="42799" width="32" height="32"><path d="M758.4 908h-480c-88 0-160-72-160-160v-480c0-88 72-160 160-160h163.2c22.4 0 40 17.6 40 40s-17.6 40-40 40H277.6c-44 0-80 36-80 80v480c0 44 36 80 80 80h480c44 0 80-36 80-80V586.4c0-22.4 17.6-40 40-40s40 17.6 40 40v161.6c0.8 88-71.2 160-159.2 160z" fill="#0575f9" p-id="42800"></path><path d="M515.2 696H397.6c-16.8 0-33.6-8-44-21.6l-14.4-19.2c-7.2-9.6-11.2-20.8-11.2-32.8V501.6c0-14.4 5.6-28 16-38.4 40.8-40.8 248.8-248 337.6-330.4 6.4-6.4 14.4-10.4 22.4-12.8 86.4-24 150.4 16 180.8 60.8 32.8 48.8 34.4 108 4 148.8C848 384.8 602.4 631.2 553.6 680c-9.6 10.4-24 16-38.4 16z m-97.6-69.6z m-8-10.4h95.2c108-108 289.6-292.8 320.8-334.4 9.6-12.8 6.4-36.8-6.4-56-8.8-13.6-35.2-41.6-88-30.4C644.8 276 453.6 466.4 408 512v101.6l1.6 2.4z m-6.4-9.6z" fill="#0575f9" p-id="42801"></path><path d="M792 408c-9.6 0-18.4-3.2-26.4-9.6l-128-112c-16.8-14.4-18.4-40-4-56.8 14.4-16.8 40-18.4 56.8-4l128 112c16.8 14.4 18.4 40 4 56.8-8 8.8-19.2 13.6-30.4 13.6z" fill="#0575f9" p-id="42802"></path></svg>