<svg t="1721486148379" class="icon" viewBox="0 0 1024 1024" version="1.1" xmlns="http://www.w3.org/2000/svg" p-id="39444" width="32" height="32"><path d="M441.698563 760.406362H213.58776c-59.804122 0-108.502558-53.529409-108.502558-119.330603V206.510242c0-65.801193 48.698436-119.330603 108.502558-119.330602h456.221606c59.804122 0 108.502558 53.529409 108.502558 119.330602v267.980218a43.58982 43.58982 0 1 0 87.17964 0V206.510242C865.491564 92.621426 777.701111 0 669.809366 0H213.58776C105.696014 0 17.905562 92.621426 17.905562 206.510242v434.565517c0 114.11093 87.790453 206.510242 195.682198 206.510243h228.110803a43.58982 43.58982 0 1 0 0-87.17964z" p-id="39445" fill="#0575f9"></path><path d="M1004.978987 699.1585a52.585426 52.585426 0 0 0-28.208444-36.870879L454.081403 400.915286A52.974125 52.974125 0 0 0 383.116066 471.991681l261.316806 522.744668a52.752011 52.752011 0 0 0 47.365753 29.263484 53.14071 53.14071 0 0 0 51.919085-42.534779l36.648766-183.243829 183.243829-36.648766a52.974125 52.974125 0 0 0 41.368682-62.413959z m-280.029887 2.110081a52.863068 52.863068 0 0 0-41.535268 41.535268l-13.326824 66.634119-121.21857-242.603724 242.381611 121.163041z" p-id="39446" fill="#0575f9"></path></svg>